<?xml version="1.0" encoding="utf-8"?>
<svg version="1.2" baseProfile="tiny-ps" xmlns="http://www.w3.org/2000/svg" viewBox="0 0 392.22 392.22" xml:space="preserve" width="392.22px" height="392.22px">
 <title>Phantom Security &amp; Fire</title>
<desc>Logo for Phantom Security & Fire, a security and fire alarm company.</desc>
<g>
	<g>
		<linearGradient id="SVGID_1_" gradientUnits="userSpaceOnUse" x1="196.1093" y1="463.2875" x2="196.1093" y2="-72.6244">
			<stop  offset="0" style="stop-color:#0848A4"/>
			<stop  offset="1" style="stop-color:#06B2EB"/>
		</linearGradient>
		<path fill="url(#SVGID_1_)" d="M291.04,155.35c-12.97-23.98-24.17-44.69-21.99-61.57l1.84-14.27l-7.66,12.18
			c-4.06,6.46-13.68,25.89-15.57,46.48c-0.74-59.09-30.73-102.98-43.88-122.22c-2.17-3.18-3.89-5.69-4.96-7.5L193.84,0l-0.88,9.78
			c-0.16,1.74-0.28,4.06-0.45,6.99c-1.32,23.83-4.75,85.8-41,121.44c-2.81-9.93-10.94-31.82-31.81-53.17l-7.53-7.7l2.17,10.55
			c5.82,28.32-7.88,56.26-22.38,85.83c-13.08,26.68-26.61,54.26-26.61,84.15c0,32.83,12.56,65.97,34.48,90.93
			c16.56,18.87,45.58,41.18,90.92,43.25c0.02,0,0.04,0,0.05,0c0.02,0,0.03,0,0.05,0c2.21,0.1,4.44,0.17,6.73,0.17
			c9.88,0,42.02-4.01,71.66-22.3c17.63-10.88,37.52-28.99,48.71-58.3c0.29-0.42,0.48-0.9,0.54-1.43c5.18-14.08,8.36-30.7,8.36-50.29
			C325.7,219.45,307.28,185.4,291.04,155.35z M251.44,155.57c2.89-1.23,4.91-4.09,4.91-7.43c0-2.35-1.01-4.46-2.61-5.93
			c0.58-13.62,5.14-27.07,9.34-36.48c2.44,15.71,11.86,33.13,22.4,52.62c10.64,19.66,22.2,41.08,29.05,64.72l-62.8,39.05
			c-0.09-0.04-0.19-0.07-0.29-0.11V155.57z M241.28,144.1c-0.69,1.19-1.09,2.57-1.09,4.04c0,1.34,0.33,2.6,0.9,3.71l-80.02,120.28
			c3.64-20.53,13.61-42.07,24.08-64.67c22.19-47.92,46.95-101.41,26.12-168.3C225.41,62.84,242.25,99.29,241.28,144.1z
			 M245.1,157.25v105.16c-1.54,0.78-2.8,2.04-3.59,3.59l-78.09,14.03L245.1,157.25z M71.68,257.87c0-28.42,13.2-55.34,25.96-81.37
			c13.29-27.11,25.93-52.89,24.26-79.61c20.32,24.29,24.64,47.59,24.68,47.84l0.97,5.55l4.24-3.71
			c39.08-34.19,44.95-95.14,46.71-123.78c31.22,73.33,4.57,130.91-19.09,182c-12.44,26.85-24.17,52.21-25.9,76.9
			c0,0.07-0.01,0.15-0.01,0.22c0,51.8,11.17,73.57,31.05,103.35C113.61,378.54,71.68,317.25,71.68,257.87z M190.33,382.53
			c-19.36-28.89-29.76-48.6-30.46-95.44l81.31-14.61c0.2,0.53,0.45,1.02,0.74,1.48l-13.58,28.57c-3.64,0.79-6.36,4.02-6.36,7.89
			c0,1.31,0.32,2.55,0.88,3.65L190.33,382.53z M197.59,385.89c-0.62,0-1.23-0.01-1.84-0.02l32.16-67.66c0.01,0,0.01,0,0.01,0
			l19.08,56.06C225.04,383.56,204.89,385.89,197.59,385.89z M265.93,364.54c-4.35,2.69-8.76,5.05-13.13,7.13L234.3,317.3
			c1.6-0.99,2.83-2.52,3.43-4.34h73.07C301.9,334.32,286.91,351.58,265.93,364.54z M313.22,306.63h-76.03
			c-0.59-1.11-1.44-2.06-2.46-2.79l12.5-26.29c0.48,0.09,0.98,0.14,1.5,0.14c4.46,0,8.07-3.62,8.07-8.08c0-1.01-0.19-1.98-0.54-2.87
			l59.98-37.29c2.43,9.79,3.99,19.96,4.3,30.53C320.54,277.12,318.09,292.69,313.22,306.63z"/>
		<g>
			
				<linearGradient id="SVGID_00000076575837954375783670000017564803505392385980_" gradientUnits="userSpaceOnUse" x1="139.0208" y1="325.931" x2="139.0208" y2="5.0909">
				<stop  offset="0" style="stop-color:#ED3A19"/>
				<stop  offset="0.5316" style="stop-color:#F58536"/>
				<stop  offset="1" style="stop-color:#FBC34E"/>
			</linearGradient>
			<path fill="url(#SVGID_00000076575837954375783670000017564803505392385980_)" d="M182.65,382.4c-1.02-1.54-2.01-3.07-2.98-4.58
				c-0.07-0.12-0.15-0.23-0.23-0.35c-0.43-0.68-0.86-1.35-1.28-2.02c-0.13-0.21-0.27-0.43-0.4-0.64c-0.38-0.61-0.75-1.21-1.12-1.82
				c-0.17-0.27-0.34-0.55-0.5-0.82c-0.35-0.57-0.69-1.14-1.03-1.71c-0.18-0.3-0.36-0.6-0.54-0.9c-0.32-0.54-0.64-1.09-0.96-1.63
				c-0.19-0.33-0.38-0.65-0.56-0.97c-0.3-0.53-0.59-1.05-0.88-1.57c-0.19-0.34-0.39-0.69-0.58-1.04c-0.28-0.51-0.55-1.02-0.83-1.53
				c-0.19-0.36-0.38-0.72-0.57-1.08c-0.27-0.5-0.53-1.01-0.79-1.51c-0.19-0.37-0.38-0.74-0.57-1.12c-0.25-0.49-0.49-0.99-0.74-1.49
				c-0.19-0.38-0.38-0.77-0.56-1.15c-0.24-0.49-0.47-0.99-0.7-1.49c-0.18-0.39-0.37-0.79-0.54-1.19c-0.22-0.49-0.44-0.98-0.66-1.48
				c-0.18-0.41-0.36-0.81-0.53-1.22c-0.21-0.49-0.42-0.99-0.62-1.49c-0.17-0.42-0.34-0.84-0.51-1.26c-0.2-0.5-0.39-1-0.59-1.5
				c-0.16-0.43-0.33-0.86-0.49-1.29c-0.19-0.5-0.37-1.01-0.55-1.51c-0.16-0.45-0.31-0.89-0.47-1.34c-0.18-0.51-0.35-1.02-0.52-1.53
				c-0.15-0.46-0.3-0.92-0.45-1.38c-0.16-0.52-0.33-1.03-0.49-1.55c-0.14-0.47-0.28-0.95-0.42-1.42c-0.15-0.53-0.31-1.06-0.46-1.59
				c-0.13-0.48-0.26-0.97-0.39-1.46c-0.14-0.54-0.29-1.08-0.42-1.63c-0.13-0.5-0.25-1.01-0.37-1.51c-0.13-0.55-0.26-1.1-0.39-1.65
				c-0.12-0.52-0.23-1.05-0.35-1.59c-0.12-0.55-0.24-1.11-0.36-1.67c-0.11-0.54-0.21-1.1-0.32-1.65c-0.11-0.57-0.22-1.13-0.32-1.71
				c-0.1-0.57-0.2-1.14-0.3-1.72c-0.1-0.58-0.2-1.15-0.29-1.74c-0.09-0.59-0.18-1.2-0.27-1.79c-0.09-0.59-0.17-1.18-0.25-1.78
				c-0.09-0.62-0.16-1.25-0.24-1.88c-0.08-0.6-0.15-1.2-0.23-1.81c-0.07-0.64-0.14-1.3-0.21-1.95c-0.07-0.62-0.13-1.23-0.2-1.86
				c-0.06-0.68-0.12-1.37-0.18-2.05c-0.05-0.63-0.11-1.25-0.16-1.89c-0.05-0.72-0.1-1.45-0.15-2.18c-0.04-0.64-0.09-1.26-0.13-1.91
				c-0.04-0.77-0.08-1.56-0.12-2.35c-0.03-0.62-0.07-1.23-0.1-1.87c-0.04-0.85-0.06-1.73-0.09-2.6c-0.02-0.59-0.05-1.18-0.06-1.78
				c-0.03-0.99-0.04-2-0.06-3.01c-0.01-0.51-0.02-1.01-0.03-1.53c-0.02-1.54-0.03-3.11-0.03-4.71c0-0.07,0.01-0.15,0.01-0.22
				c1.72-24.69,13.46-50.05,25.9-76.9c1.48-3.19,2.96-6.4,4.45-9.64c3.58-7.82,7.15-15.81,10.48-23.98
				c0.48-1.17,0.94-2.34,1.41-3.51c3.72-9.35,7.11-18.95,9.86-28.85c0.87-3.13,1.66-6.3,2.39-9.49c0.12-0.49,0.24-0.98,0.35-1.47
				c0.27-1.24,0.52-2.49,0.77-3.73c0.12-0.62,0.26-1.22,0.38-1.84c1.39-7.24,2.36-14.64,2.84-22.22c0.02-0.25,0.04-0.49,0.05-0.73
				c1.38-23.51-2.14-48.74-13.75-76.17c-1.27-7.39-2.85-15.1-4.82-23.17l-0.88,9.78c-0.16,1.74-0.28,4.06-0.45,6.99
				c-1.32,23.83-4.75,85.8-41,121.44c-2.81-9.93-10.94-31.82-31.81-53.17l-7.53-7.7l2.17,10.55c5.82,28.32-7.88,56.26-22.38,85.83
				c-13.08,26.68-26.61,54.26-26.61,84.15c0,32.83,12.56,65.97,34.48,90.93c16.39,18.68,44.99,40.71,89.54,43.16
				c-2.2-2.91-4.43-6.15-6.22-8.82C182.99,382.9,182.82,382.65,182.65,382.4z"/>
		</g>
		<g>
			<path fill="none" d="M241.52,266c0.78-1.55,2.04-2.8,3.59-3.59V157.25l-81.68,122.78L241.52,266z"/>
			<path fill="none" d="M66.05,246.13c0.12-1.06,0.27-2.12,0.42-3.18c-0.2,1-0.34,1.99-0.4,2.95
				C66.06,245.98,66.05,246.05,66.05,246.13z"/>
			<path fill="none" d="M227.9,318.21l-32.16,67.66c0.62,0.01,1.23,0.02,1.84,0.02c7.3,0,27.45-2.32,49.41-11.62l-19.08-56.06
				C227.92,318.21,227.91,318.21,227.9,318.21z"/>
			
				<linearGradient id="SVGID_00000063628126714044795850000005796435897474493375_" gradientUnits="userSpaceOnUse" x1="90.326" y1="241.5576" x2="114.9473" y2="61.8229">
				<stop  offset="0" style="stop-color:#ED3A19"/>
				<stop  offset="0.5316" style="stop-color:#F58536"/>
				<stop  offset="1" style="stop-color:#FBC34E"/>
			</linearGradient>
			<path fill="url(#SVGID_00000063628126714044795850000005796435897474493375_)" d="M128.06,104.88
				c-2.53-9.19-7.56-18.41-15.88-27.54l2.17,10.55c5.82,28.32-7.88,56.26-22.38,85.83c-10.88,22.18-22.03,44.99-25.49,69.22
				c1.46-7.58,6.5-16.33,13.17-25.96C101.1,185.93,139.25,145.6,128.06,104.88z"/>
			
				<linearGradient id="SVGID_00000134928225005463827060000001314094910638330039_" gradientUnits="userSpaceOnUse" x1="65.9527" y1="405.5485" x2="65.9527" y2="10.714">
				<stop  offset="0" style="stop-color:#F25D27"/>
				<stop  offset="1" style="stop-color:#F89838"/>
			</linearGradient>
			<path fill="url(#SVGID_00000134928225005463827060000001314094910638330039_)" d="M65.86,247.98c0.07-0.57,0.13-1.18,0.19-1.86
				C65.98,246.75,65.92,247.37,65.86,247.98z"/>
			
				<linearGradient id="SVGID_00000177451620284572924830000001676071076203451541_" gradientUnits="userSpaceOnUse" x1="69.0317" y1="224.9421" x2="87.1194" y2="95.0387">
				<stop  offset="0" style="stop-color:#F25D27"/>
				<stop  offset="1" style="stop-color:#F89838"/>
			</linearGradient>
			<path fill="url(#SVGID_00000177451620284572924830000001676071076203451541_)" d="M65.86,247.98c0.07-0.57,0.13-1.18,0.19-1.86
				C65.98,246.75,65.92,247.37,65.86,247.98z"/>
		</g>
		
			<linearGradient id="SVGID_00000015335577818241615160000003628773439674450837_" gradientUnits="userSpaceOnUse" x1="165.7391" y1="271.764" x2="165.7391" y2="10.9554">
			<stop  offset="0" style="stop-color:#ED3A19"/>
			<stop  offset="0.5316" style="stop-color:#F58536"/>
			<stop  offset="1" style="stop-color:#FBC34E"/>
		</linearGradient>
		<path fill="url(#SVGID_00000015335577818241615160000003628773439674450837_)" d="M198.66,23.18c-1.27-7.4-2.86-15.1-4.82-23.18
			l-0.88,9.78c-0.16,1.74-0.28,4.06-0.45,6.99c-1.32,23.83-4.75,85.8-41,121.44c-1.2,3.98-2.33,7.84-3.42,11.61
			c-35.71,124.07-10.61,135.75-10.61,135.75C125,187.27,223.02,165.28,198.66,23.18z"/>
	</g>
</g>
</svg>
